<?xml version="1.0" encoding="UTF-8"?>
<svg xmlns="http://www.w3.org/2000/svg" viewBox="0 0 3720 4764.32">
	<g>
		<path d="M3720,1380v120h-1200c0-364.51-295.49-660-660-660s-660,295.49-660,660H0v-120L960,0h1800l960,1380Z"/>
		<polygon points="3510.57 2400 1860 4764.32 209.43 2400 1150.43 2400 1359.13 2700 1359.13 3000 1860 3720 2360.87 3000 2360.87 2700 2569.57 2400 3510.57 2400"/>
	</g>
	<g>
		<polygon points="308.64 1950 458.64 2100 373.78 2100 253.78 1980 158.64 1980 158.64 2100 98.64 2100 98.64 1800 158.64 1800 158.64 1920 253.78 1920 373.78 1800 458.64 1800 308.64 1950"/>
		<g>
			<rect x="544.62" y="1800" width="360" height="60"/>
      <rect x="544.62" y="2040" width="360" height="60"/>
      <rect x="544.62" y="1920" width="300" height="60"/>
    </g>
		<polygon points="989.61 1800 1139.61 1978.76 1139.61 2100 1199.61 2100 1199.61 1978.76 1349.61 1800 1271.29 1800 1169.61 1921.17 1067.93 1800 989.61 1800"/>
    <path d="M1478.53,1880v20c0,11.05,8.95,20,20,20h220c33.14,0,60,26.86,60,60v60c0,33.14-26.86,60-60,60h-300v-60h280c11.05,0,20-8.95,20-20v-20c0-11.05-8.95-20-20-20h-220c-33.14,0-60-26.86-60-60v-60c0-33.14,26.86-60,60-60h300v60h-280c-11.05,0-20,8.95-20,20Z"/>
    <polygon points="2245.65 1800 2245.65 1860 2095.65 1860 2095.65 2100 2035.65 2100 2035.65 1860 1885.65 1860 1885.65 1800 2245.65 1800"/>
    <path d="M2328.88,1860v180c0,33.14,26.86,60,60,60h240c33.14,0,60-26.86,60-60v-180c0-33.14-26.86-60-60-60h-240c-33.14,0-60,26.86-60,60ZM2608.88,2040h-200c-11.05,0-20-8.95-20-20v-140c0-11.05,8.95-20,20-20h200c11.05,0,20,8.95,20,20v140c0,11.05-8.95,20-20,20Z"/>
    <polygon points="2796.99 1800 2856.99 1800 3096.99 2020 3096.99 1800 3156.99 1800 3156.99 2100 3096.99 2100 2856.99 1880 2856.99 2100 2796.99 2100 2796.99 1800"/>
    <g>
      <rect x="3261.8" y="1800" width="360" height="60"/>
      <rect x="3261.8" y="2040" width="360" height="60"/>
      <rect x="3261.8" y="1920" width="300" height="60"/>
    </g>
	</g>
</svg>