<?xml version="1.0" encoding="UTF-8"?>
<svg xmlns="http://www.w3.org/2000/svg" viewBox="0 0 3720 4464.32">
	<g>
		<path d="M3720,1380v120h-1200c0-364.51-295.49-660-660-660s-660,295.49-660,660H0v-120L960,0h1800l960,1380Z"/>
		<polygon points="3510.57 2100 1860 4464.32 209.43 2100 1150.43 2100 1359.13 2400 1359.13 2700 1860 3420 2360.87 2700 2360.87 2400 2569.57 2100 3510.57 2100"/>
	</g>
	<g>
	<polygon points="308.18 1800 458.18 1950 373.32 1950 253.32 1830 158.18 1830 158.18 1950 98.18 1950 98.18 1650 158.18 1650 158.18 1770 253.32 1770 373.32 1650 458.18 1650 308.18 1800"/>
    <g>
      <rect x="544.17" y="1650" width="360" height="60"/>
      <rect x="544.17" y="1890" width="360" height="60"/>
      <rect x="544.17" y="1770" width="300" height="60"/>
    </g>
    <polygon points="989.16 1650 1139.16 1828.76 1139.16 1950 1199.16 1950 1199.16 1828.76 1349.16 1650 1270.84 1650 1169.16 1771.17 1067.48 1650 989.16 1650"/>
    <path d="M1478.07,1730v20c0,11.05,8.95,20,20,20h220c33.14,0,60,26.86,60,60v60c0,33.14-26.86,60-60,60h-300v-60h280c11.05,0,20-8.95,20-20v-20c0-11.05-8.95-20-20-20h-220c-33.14,0-60-26.86-60-60v-60c0-33.14,26.86-60,60-60h300v60h-280c-11.05,0-20,8.95-20,20Z"/>
    <polygon points="2245.19 1650 2245.19 1710 2095.19 1710 2095.19 1950 2035.19 1950 2035.19 1710 1885.19 1710 1885.19 1650 2245.19 1650"/>
    <path d="M2328.42,1710v180c0,33.14,26.86,60,60,60h240c33.14,0,60-26.86,60-60v-180c0-33.14-26.86-60-60-60h-240c-33.14,0-60,26.86-60,60ZM2608.42,1890h-200c-11.05,0-20-8.95-20-20v-140c0-11.05,8.95-20,20-20h200c11.05,0,20,8.95,20,20v140c0,11.05-8.95,20-20,20Z"/>
    <polygon points="2796.53 1650 2856.53 1650 3096.53 1870 3096.53 1650 3156.53 1650 3156.53 1950 3096.53 1950 2856.53 1730 2856.53 1950 2796.53 1950 2796.53 1650"/>
    <g>
      <rect x="3261.34" y="1650" width="360" height="60"/>
      <rect x="3261.34" y="1890" width="360" height="60"/>
      <rect x="3261.34" y="1770" width="300" height="60"/>
		</g>
	</g>
</svg>