<?xml version="1.0" encoding="UTF-8"?>
<svg xmlns="http://www.w3.org/2000/svg" viewBox="0 0 3523.16 300">
	<polygon points="210 150 360 300 275.14 300 155.14 180 60 180 60 300 0 300 0 0 60 0 60 120 155.14 120 275.14 0 360 0 210 150"/>
	<g>
		<rect x="445.98" width="360" height="60"/>
		<rect x="445.98" y="240" width="360" height="60"/>
		<rect x="445.98" y="120" width="300" height="60"/>
	</g>
	<polygon points="890.97 0 1040.97 178.76 1040.97 300 1100.97 300 1100.97 178.76 1250.97 0 1172.65 0 1070.97 121.17 969.29 0 890.97 0"/>
	<path d="M1379.89,80v20c0,11.05,8.95,20,20,20h220c33.14,0,60,26.86,60,60v60c0,33.14-26.86,60-60,60h-300v-60h280c11.05,0,20-8.95,20-20v-20c0-11.05-8.95-20-20-20h-220c-33.14,0-60-26.86-60-60v-60c0-33.14,26.86-60,60-60h300v60h-280c-11.05,0-20,8.95-20,20Z"/>
	<polygon points="2147.01 0 2147.01 60 1997.01 60 1997.01 300 1937.01 300 1937.01 60 1787.01 60 1787.01 0 2147.01 0"/>
	<path d="M2230.24,60v180c0,33.14,26.86,60,60,60h240c33.14,0,60-26.86,60-60V60c0-33.14-26.86-60-60-60h-240c-33.14,0-60,26.86-60,60ZM2510.24,240h-200c-11.05,0-20-8.95-20-20V80c0-11.05,8.95-20,20-20h200c11.05,0,20,8.95,20,20v140c0,11.05-8.95,20-20,20Z"/>
	<polygon points="2698.35 0 2758.35 0 2998.35 220 2998.35 0 3058.35 0 3058.35 300 2998.35 300 2758.35 80 2758.35 300 2698.35 300 2698.35 0"/>
	<g>
		<rect x="3163.16" width="360" height="60"/>
		<rect x="3163.16" y="240" width="360" height="60"/>
		<rect x="3163.16" y="120" width="300" height="60"/>
	</g>
</svg>