<?xml version="1.0" encoding="UTF-8"?>
<svg xmlns="http://www.w3.org/2000/svg" viewBox="0 0 3720 4764.32" fill="currentColor">
	<g>
		<path d="M3720,1380v120h-1200c0-364.51-295.49-660-660-660s-660,295.49-660,660H0v-120L960,0h1800l960,1380Z"/>
		<polygon points="3510.57 2400 1860 4764.32 209.43 2400 1150.43 2400 1359.13 2700 1359.13 3000 1860 3720 2360.87 3000 2360.87 2700 2569.57 2400 3510.57 2400"/>
	</g>
	<g>
		<polygon points="210 1950 360 2100 275.14 2100 155.14 1980 60 1980 60 2100 0 2100 0 1800 60 1800 60 1920 155.14 1920 275.14 1800 360 1800 210 1950"/>
		<g>
			<rect x="480" y="1800" width="360" height="60"/>
			<rect x="480" y="2040" width="360" height="60"/>
			<rect x="480" y="1920" width="300" height="60"/>
		</g>
		<polygon points="960 1800 1110 1978.76 1110 2100 1170 2100 1170 1978.76 1320 1800 1241.68 1800 1140 1921.17 1038.32 1800 960 1800"/>
		<path d="M1500,1880v20c0,11.05,8.95,20,20,20h220c33.14,0,60,26.86,60,60v60c0,33.14-26.86,60-60,60h-300v-60h280c11.05,0,20-8.95,20-20v-20c0-11.05-8.95-20-20-20h-220c-33.14,0-60-26.86-60-60v-60c0-33.14,26.86-60,60-60h300v60h-280c-11.05,0-20,8.95-20,20Z"/>
		<polygon points="2280 1800 2280 1860 2130 1860 2130 2100 2070 2100 2070 1860 1920 1860 1920 1800 2280 1800"/>
		<path d="M2400,1860v180c0,33.14,26.86,60,60,60h240c33.14,0,60-26.86,60-60v-180c0-33.14-26.86-60-60-60h-240c-33.14,0-60,26.86-60,60ZM2680,2040h-200c-11.05,0-20-8.95-20-20v-140c0-11.05,8.95-20,20-20h200c11.05,0,20,8.95,20,20v140c0,11.05-8.95,20-20,20Z"/>
		<polygon points="2880 1800 2940 1800 3180 2020 3180 1800 3240 1800 3240 2100 3180 2100 2940 1880 2940 2100 2880 2100 2880 1800"/>
		<g>
			<rect x="3360" y="1800" width="360" height="60"/>
			<rect x="3360" y="2040" width="360" height="60"/>
			<rect x="3360" y="1920" width="300" height="60"/>
		</g>
	</g>
</svg>