<?xml version="1.0" encoding="UTF-8"?>
<svg xmlns="http://www.w3.org/2000/svg" viewBox="0 0 3720 4464.32" fill="currentColor">
	<g>
		<path d="M3720,1380v120h-1200c0-364.51-295.49-660-660-660s-660,295.49-660,660H0v-120L960,0h1800l960,1380Z"/>
    <polygon points="3510.57 2100 1860 4464.32 209.43 2100 1150.43 2100 1359.13 2400 1359.13 2700 1860 3420 2360.87 2700 2360.87 2400 2569.57 2100 3510.57 2100"/>
	</g>
  <g>
    <polygon points="210 1800 360 1950 275.14 1950 155.14 1830 60 1830 60 1950 0 1950 0 1650 60 1650 60 1770 155.14 1770 275.14 1650 360 1650 210 1800"/>
    <g>
      <rect x="480" y="1650" width="360" height="60"/>
      <rect x="480" y="1890" width="360" height="60"/>
      <rect x="480" y="1770" width="300" height="60"/>
    </g>
		<polygon points="960 1650 1110 1828.76 1110 1950 1170 1950 1170 1828.76 1320 1650 1241.68 1650 1140 1771.17 1038.32 1650 960 1650"/>
		<path d="M1500,1730v20c0,11.05,8.95,20,20,20h220c33.14,0,60,26.86,60,60v60c0,33.14-26.86,60-60,60h-300v-60h280c11.05,0,20-8.95,20-20v-20c0-11.05-8.95-20-20-20h-220c-33.14,0-60-26.86-60-60v-60c0-33.14,26.86-60,60-60h300v60h-280c-11.05,0-20,8.95-20,20Z"/>
    <polygon points="2280 1650 2280 1710 2130 1710 2130 1950 2070 1950 2070 1710 1920 1710 1920 1650 2280 1650"/>
    <path d="M2400,1710v180c0,33.14,26.86,60,60,60h240c33.14,0,60-26.86,60-60v-180c0-33.14-26.86-60-60-60h-240c-33.14,0-60,26.86-60,60ZM2680,1890h-200c-11.05,0-20-8.95-20-20v-140c0-11.05,8.95-20,20-20h200c11.05,0,20,8.95,20,20v140c0,11.05-8.95,20-20,20Z"/>
    <polygon points="2880 1650 2940 1650 3180 1870 3180 1650 3240 1650 3240 1950 3180 1950 2940 1730 2940 1950 2880 1950 2880 1650"/>
		<g>
			<rect x="3360" y="1650" width="360" height="60"/>
			<rect x="3360" y="1890" width="360" height="60"/>
			<rect x="3360" y="1770" width="300" height="60"/>
		</g>
  </g>
</svg>