<?xml version="1.0" encoding="UTF-8"?>
<svg xmlns="http://www.w3.org/2000/svg" viewBox="0 0 3720 300" fill="currentColor">
  <polygon points="210 150 360 300 275.14 300 155.14 180 60 180 60 300 0 300 0 0 60 0 60 120 155.14 120 275.14 0 360 0 210 150"/>
	 <g>
    <rect x="480" width="360" height="60"/>
    <rect x="480" y="240" width="360" height="60"/>
    <rect x="480" y="120" width="300" height="60"/>
  </g>
	<polygon points="960 0 1110 178.76 1110 300 1170 300 1170 178.76 1320 0 1241.68 0 1140 121.17 1038.32 0 960 0"/>
  <path d="M1500,80v20c0,11.05,8.95,20,20,20h220c33.14,0,60,26.86,60,60v60c0,33.14-26.86,60-60,60h-300v-60h280c11.05,0,20-8.95,20-20v-20c0-11.05-8.95-20-20-20h-220c-33.14,0-60-26.86-60-60v-60c0-33.14,26.86-60,60-60h300v60h-280c-11.05,0-20,8.95-20,20Z"/>
  <polygon points="2280 0 2280 60 2130 60 2130 300 2070 300 2070 60 1920 60 1920 0 2280 0"/>
  <path d="M2400,60v180c0,33.14,26.86,60,60,60h240c33.14,0,60-26.86,60-60V60c0-33.14-26.86-60-60-60h-240c-33.14,0-60,26.86-60,60ZM2680,240h-200c-11.05,0-20-8.95-20-20V80c0-11.05,8.95-20,20-20h200c11.05,0,20,8.95,20,20v140c0,11.05-8.95,20-20,20Z"/>
  <polygon points="2880 0 2940 0 3180 220 3180 0 3240 0 3240 300 3180 300 2940 80 2940 300 2880 300 2880 0"/>
  <g>
    <rect x="3360" width="360" height="60"/>
    <rect x="3360" y="240" width="360" height="60"/>
    <rect x="3360" y="120" width="300" height="60"/>
  </g>
</svg>